<svg xmlns="http://www.w3.org/2000/svg" viewBox="0 0 900 675">
<rect width="900" height="675" fill="#F5F0E8"/>
<path d="M 372 128 C 356 196, 360 268, 396 328 C 370 372, 348 408, 346 462 C 344 520, 356 566, 374 604" fill="none" stroke="#1B1B18" stroke-width="3" stroke-linecap="round" stroke-linejoin="round"/><path d="M 528 128 C 544 196, 540 268, 504 328 C 530 372, 552 408, 554 462 C 556 520, 544 566, 526 604" fill="none" stroke="#1B1B18" stroke-width="3" stroke-linecap="round" stroke-linejoin="round"/><path d="M 444 356 c 6 4, 6 16, 0 22 c -6 -4, -6 -18, 0 -22 Z" fill="none" stroke="#1B1B18" stroke-width="1.8" stroke-linecap="round" stroke-linejoin="round"/><path d="M 392 500 C 428 524, 476 524, 512 500" fill="none" stroke="#C2A15F" stroke-width="1.8" stroke-linecap="round"/><circle cx="560" cy="176" r="5" fill="#C2A15F"/>
</svg>