<svg xmlns="http://www.w3.org/2000/svg" viewBox="0 0 900 675">
<rect width="900" height="675" fill="#F5F0E8"/>
<rect x="26" y="26" width="848" height="623" fill="none" stroke="#C2A15F" stroke-opacity=".32" stroke-width="1"/>
<g fill="none" stroke="#22261F" stroke-width="3.4" stroke-opacity="1" stroke-linecap="round" stroke-linejoin="round"><path d="M 316 236 C 390 224, 480 220, 562 226 C 588 228, 608 226, 624 220" stroke-width="2.8" stroke-opacity=".85"/></g><g fill="none" stroke="#C2A15F" stroke-width="2.1" stroke-opacity="1" stroke-linecap="round" stroke-linejoin="round"><path d="M 414 392 c 0 -30 52 -30 52 0 c 0 36 -72 36 -72 0 c 0 -46 92 -46 92 0 c 0 54 -112 54 -112 0 c 0 -62 132 -62 132 0"/></g><g fill="none" stroke="#C2A15F" stroke-width="2" stroke-linecap="round" stroke-dasharray="1 9"><path d="M 386 300 C 430 288, 482 286, 528 292"/></g><circle cx="556" cy="322" r="3.2" fill="#C2A15F"/><circle cx="578" cy="306" r="2.4" fill="#C2A15F"/><circle cx="538" cy="350" r="2.2" fill="#C2A15F"/><path d="M 600 237.175 q 3.42 10.924999999999999 12.825 12.825 q -9.405 1.9 -12.825 12.825 q -3.42 -10.924999999999999 -12.825 -12.825 q 9.405 -1.9 12.825 -12.825 Z" fill="#C2A15F"/>
</svg>