<svg xmlns="http://www.w3.org/2000/svg" viewBox="0 0 900 675">
<rect width="900" height="675" fill="#F5F0E8"/>
<path d="M 462.0 348.0 L 462.4 349.1 L 462.8 350.3 L 463.0 351.6 L 463.0 352.9 L 463.0 354.3 L 462.8 355.7 L 462.4 357.1 L 461.9 358.5 L 461.3 359.8 L 460.5 361.2 L 459.5 362.5 L 458.4 363.7 L 457.1 364.8 L 455.7 365.8 L 454.2 366.8 L 452.6 367.5 L 450.8 368.2 L 449.0 368.6 L 447.1 369.0 L 445.1 369.1 L 443.1 369.0 L 441.0 368.7 L 439.0 368.3 L 436.9 367.6 L 434.9 366.7 L 433.0 365.6 L 431.1 364.4 L 429.3 362.9 L 427.6 361.2 L 426.1 359.3 L 424.7 357.3 L 423.5 355.1 L 422.5 352.8 L 421.7 350.3 L 421.1 347.8 L 420.8 345.2 L 420.7 342.5 L 420.8 339.7 L 421.3 337.0 L 421.9 334.2 L 422.9 331.5 L 424.1 328.8 L 425.6 326.3 L 427.3 323.8 L 429.2 321.5 L 431.4 319.3 L 433.9 317.3 L 436.5 315.6 L 439.3 314.0 L 442.3 312.7 L 445.5 311.7 L 448.7 311.0 L 452.1 310.5 L 455.5 310.4 L 459.0 310.6 L 462.5 311.1 L 465.9 311.9 L 469.3 313.1 L 472.7 314.5 L 475.9 316.3 L 479.0 318.4 L 481.9 320.9 L 484.6 323.5 L 487.1 326.5 L 489.3 329.7 L 491.2 333.2 L 492.8 336.8 L 494.2 340.6 L 495.1 344.6 L 495.7 348.7 L 496.0 352.8 L 495.8 357.0 L 495.3 361.2 L 494.4 365.4 L 493.0 369.5 L 491.3 373.6 L 489.3 377.5 L 486.8 381.2 L 484.0 384.7 L 480.9 388.0 L 477.4 391.0 L 473.6 393.8 L 469.6 396.1 L 465.4 398.2 L 460.9 399.8 L 456.2 401.1 L 451.5 401.9 L 446.6 402.3 L 441.6 402.2 L 436.7 401.7 L 431.8 400.8 L 426.9 399.4 L 422.1 397.5 L 417.5 395.2 L 413.1 392.5 L 408.9 389.3 L 405.0 385.8 L 401.4 381.8 L 398.1 377.6 L 395.3 373.0 L 392.8 368.1 L 390.7 363.0 L 389.1 357.7 L 388.0 352.3 L 387.4 346.7 L 387.3 341.0 L 387.7 335.3 L 388.7 329.6 L 390.1 324.0 L 392.1 318.5 L 394.6 313.2 L 397.5 308.0 L 401.0 303.1 L 404.9 298.6 L 409.2 294.3 L 414.0 290.5 L 419.0 287.0 L 424.5 284.1 L 430.2 281.6 L 436.1 279.6 L 442.3 278.1 L 448.6 277.2 L 455.0 276.9 L 461.4 277.2 L 467.9 278.0 L 474.2 279.4 L 480.5 281.5 L 486.6 284.1 L 492.5 287.2 L 498.1 290.9 L 503.3 295.1 L 508.3 299.8 L 512.7 305.0 L 516.8 310.5 L 520.3 316.5 L 523.3 322.8 L 525.7 329.4 L 527.6 336.2 L 528.8 343.2 L 529.4 350.3 L 529.4 357.5 L 528.7 364.6 L 527.3 371.8 L 525.3 378.8 L 522.7 385.7 L 519.4 392.3 L 515.5 398.7 L 511.1 404.7 L 506.0 410.3 L 500.5 415.5 L 494.5 420.1 L 488.0 424.3 L 481.2 427.8 L 474.0 430.8 L 466.6 433.1 L 458.9 434.7 L 451.1 435.6 L 443.2 435.9 L 435.3 435.4 L 427.4 434.2 L 419.5 432.2 L 411.9 429.6 L 404.5 426.3 L 397.3 422.2 L 390.6 417.6 L 384.2 412.3 L 378.3 406.4 L 373.0 400.0 L 368.2 393.1 L 364.0 385.8 L 360.5 378.1 L 357.7 370.0 L 355.6 361.7 L 354.3 353.2 L 353.7 344.6 L 354.0 335.9 L 355.0 327.2 L 356.8 318.6 L 359.3 310.1 L 362.7 301.9 L 366.8 294.0 L 371.6 286.4 L 377.1 279.3 L 383.2 272.7 L 390.0 266.6 L 397.3 261.1 L 405.1 256.3 L 413.3 252.2 L 422.0 248.8 L 430.9 246.2 L 440.1 244.4 L 449.4 243.5 L 458.8 243.4 L 468.3 244.1 L 477.7 245.7 L 486.9 248.2 L 495.9 251.5 L 504.7 255.6 L 513.0 260.5 L 521.0 266.1 L 528.4 272.5 L 535.2 279.5 L 541.4 287.2 L 547.0 295.4 L 551.7 304.2 L 555.7 313.3 L 558.9 322.8 L 561.2 332.7 L 562.6 342.7 L 563.1 352.8 L 562.7 363.1 L 561.3 373.2 L 559.1 383.3 L 555.9 393.1 L 551.8 402.7 L 546.9 411.9 L 541.2 420.6 L 534.6 428.8 L 527.3 436.5 L 519.4 443.5" fill="none" stroke="#1B1B18" stroke-width="2.8" stroke-linecap="round" stroke-linejoin="round"/><circle cx="566" cy="236" r="5" fill="#C2A15F"/>
</svg>