<svg xmlns="http://www.w3.org/2000/svg" viewBox="0 0 900 675">
<rect width="900" height="675" fill="#F5F0E8"/>
<rect x="26" y="26" width="848" height="623" fill="none" stroke="#C2A15F" stroke-opacity=".32" stroke-width="1"/>
<g fill="none" stroke="#22261F" stroke-width="3.4" stroke-opacity="1" stroke-linecap="round" stroke-linejoin="round"><path d="M 330 360 C 380 316, 460 300, 530 322 C 560 332, 582 348, 594 364" stroke-width="3.2"/>
       <path d="M 330 360 C 390 396, 480 402, 556 380 C 572 374, 586 368, 594 364" stroke-width="2.6" stroke-opacity=".8"/>
       <path d="M 344 292 C 400 262, 500 256, 574 286" stroke-width="2.8"/></g><g fill="none" stroke="#22261F" stroke-width="2.2" stroke-opacity="0.9" stroke-linecap="round" stroke-linejoin="round"><circle cx="462" cy="352" r="30"/></g><g fill="none" stroke="#C2A15F" stroke-width="2" stroke-linecap="round" stroke-dasharray="1 9"><path d="M 368 330 C 420 300, 500 294, 556 312"/></g><path d="M 300 330 L 322 306" stroke="#C2A15F" stroke-width="2" fill="none" stroke-linecap="round"/><path d="M 319.4 314.6 L 322 306 L 313.6 309.3" stroke="#C2A15F" stroke-width="2" fill="none" stroke-linecap="round" stroke-linejoin="round"/><path d="M 600 238.525 q 3.06 9.775 11.475 11.475 q -8.415000000000001 1.7 -11.475 11.475 q -3.06 -9.775 -11.475 -11.475 q 8.415000000000001 -1.7 11.475 -11.475 Z" fill="#C2A15F"/>
</svg>