<svg xmlns="http://www.w3.org/2000/svg" viewBox="0 0 900 675">
<rect width="900" height="675" fill="#F5F0E8"/>
<rect x="26" y="26" width="848" height="623" fill="none" stroke="#C2A15F" stroke-opacity=".32" stroke-width="1"/>
<g fill="none" stroke="#22261F" stroke-width="3.4" stroke-opacity="1" stroke-linecap="round" stroke-linejoin="round"><path d="M 400 140 C 384 220, 386 300, 416 370 C 396 430, 386 490, 388 580"/></g><g fill="none" stroke="#C2A15F" stroke-width="1.8" stroke-opacity="1" stroke-linecap="round" stroke-linejoin="round"><path d="M 470 300 C 486 316, 486 344, 470 360 M 500 280 C 526 306, 526 354, 500 380 M 530 260 C 566 296, 566 364, 530 400"/></g><circle cx="452" cy="330" r="4" fill="#C2A15F"/><g fill="none" stroke="#C2A15F" stroke-width="2" stroke-linecap="round" stroke-dasharray="1 9"><path d="M 428 300 C 416 322, 416 344, 428 366"/></g><path d="M 590 207.85 q 3.24 10.35 12.15 12.15 q -8.91 1.8 -12.15 12.15 q -3.24 -10.35 -12.15 -12.15 q 8.91 -1.8 12.15 -12.15 Z" fill="#C2A15F"/>
</svg>