<svg xmlns="http://www.w3.org/2000/svg" viewBox="0 0 900 675">
<rect width="900" height="675" fill="#F5F0E8"/>
<rect x="26" y="26" width="848" height="623" fill="none" stroke="#C2A15F" stroke-opacity=".32" stroke-width="1"/>
<g transform="translate(-237.3 -134.3) scale(1.45)"><g fill="none" stroke="#22261F" stroke-width="3.4" stroke-opacity="1" stroke-linecap="round" stroke-linejoin="round"><path d="M 330 388 q 14 -12 28 0 q 14 12 28 0 q 14 -12 28 0 q 14 12 28 0" stroke-width="2.4" stroke-opacity=".7"/></g><g fill="none" stroke="#C2A15F" stroke-width="2.4" stroke-opacity="1" stroke-linecap="round" stroke-linejoin="round"><path d="M 448 386 C 500 378, 552 374, 594 374"/></g><g fill="none" stroke="#C2A15F" stroke-width="1.7" stroke-opacity="0.85" stroke-linecap="round" stroke-linejoin="round"><circle cx="524" cy="322" r="30" stroke-dasharray="3 8"/></g><path d="M 468 348 L 506 336" stroke="#C2A15F" stroke-width="2" fill="none" stroke-linecap="round"/><path d="M 499.5 342.2 L 506 336 L 497.1 334.7" stroke="#C2A15F" stroke-width="2" fill="none" stroke-linecap="round" stroke-linejoin="round"/><g fill="none" stroke="#C2A15F" stroke-width="2" stroke-linecap="round" stroke-dasharray="1 9"><path d="M 356 342 C 386 334, 414 332, 438 336"/></g><path d="M 600 247.175 q 3.42 10.924999999999999 12.825 12.825 q -9.405 1.9 -12.825 12.825 q -3.42 -10.924999999999999 -12.825 -12.825 q 9.405 -1.9 12.825 -12.825 Z" fill="#C2A15F"/></g>
</svg>