<svg xmlns="http://www.w3.org/2000/svg" viewBox="0 0 900 675">
<rect width="900" height="675" fill="#F5F0E8"/>
<rect x="26" y="26" width="848" height="623" fill="none" stroke="#C2A15F" stroke-opacity=".32" stroke-width="1"/>
<g fill="none" stroke="#22261F" stroke-width="3.4" stroke-opacity="1" stroke-linecap="round" stroke-linejoin="round"><path d="M 380 200 C 366 280, 378 350, 414 402 C 438 436, 474 456, 516 458" stroke-width="3.2"/></g><g fill="none" stroke="#C2A15F" stroke-width="1.8" stroke-opacity="1" stroke-linecap="round" stroke-linejoin="round"><path d="M 420 380 L 500 300 M 444 404 L 524 324 M 468 424 L 548 344" stroke-dasharray="10 7"/></g><path d="M 508 296 L 526 278" stroke="#C2A15F" stroke-width="2" fill="none" stroke-linecap="round"/><path d="M 523.0 286.5 L 526 278 L 517.5 281.0" stroke="#C2A15F" stroke-width="2" fill="none" stroke-linecap="round" stroke-linejoin="round"/><path d="M 532 320 L 550 302" stroke="#C2A15F" stroke-width="2" fill="none" stroke-linecap="round"/><path d="M 547.0 310.5 L 550 302 L 541.5 305.0" stroke="#C2A15F" stroke-width="2" fill="none" stroke-linecap="round" stroke-linejoin="round"/><path d="M 556 340 L 574 322" stroke="#C2A15F" stroke-width="2" fill="none" stroke-linecap="round"/><path d="M 571.0 330.5 L 574 322 L 565.5 325.0" stroke="#C2A15F" stroke-width="2" fill="none" stroke-linecap="round" stroke-linejoin="round"/><path d="M 560 208.525 q 3.06 9.775 11.475 11.475 q -8.415000000000001 1.7 -11.475 11.475 q -3.06 -9.775 -11.475 -11.475 q 8.415000000000001 -1.7 11.475 -11.475 Z" fill="#C2A15F"/>
</svg>