<svg xmlns="http://www.w3.org/2000/svg" viewBox="0 0 900 675">
<rect width="900" height="675" fill="#F5F0E8"/>
<rect x="26" y="26" width="848" height="623" fill="none" stroke="#C2A15F" stroke-opacity=".32" stroke-width="1"/>
<g fill="none" stroke="#22261F" stroke-width="3.4" stroke-opacity="1" stroke-linecap="round" stroke-linejoin="round"><path d="M 332 206 C 372 180, 528 180, 568 206" stroke-width="2.2" stroke-opacity=".55"/>
       <path d="M 346 212 C 340 268, 346 324, 364 368" stroke-width="3.2"/>
       <path d="M 554 212 C 560 268, 554 324, 536 368" stroke-width="3.2"/>
       <path d="M 372 252 C 398 274, 432 282, 448 278" stroke-width="2.6"/>
       <path d="M 528 252 C 502 274, 468 282, 452 278" stroke-width="2.6"/>
       <path d="M 450 246 L 450 320" stroke-width="1.3" stroke-opacity=".35"/></g><g fill="none" stroke="#C2A15F" stroke-width="2" stroke-linecap="round" stroke-dasharray="1 9"><path d="M 392 300 C 410 318, 432 326, 450 324"/>
        <path d="M 508 300 C 490 318, 468 326, 450 324"/></g><path d="M 330 330 L 368 322" stroke="#C2A15F" stroke-width="2" fill="none" stroke-linecap="round"/><path d="M 360.9 327.5 L 368 322 L 359.3 319.8" stroke="#C2A15F" stroke-width="2" fill="none" stroke-linecap="round" stroke-linejoin="round"/><path d="M 570 330 L 532 322" stroke="#C2A15F" stroke-width="2" fill="none" stroke-linecap="round"/><path d="M 540.7 319.8 L 532 322 L 539.1 327.5" stroke="#C2A15F" stroke-width="2" fill="none" stroke-linecap="round" stroke-linejoin="round"/><path d="M 450 138.525 q 3.06 9.775 11.475 11.475 q -8.415000000000001 1.7 -11.475 11.475 q -3.06 -9.775 -11.475 -11.475 q 8.415000000000001 -1.7 11.475 -11.475 Z" fill="#C2A15F"/>
</svg>