<svg xmlns="http://www.w3.org/2000/svg" viewBox="0 0 900 675">
<rect width="900" height="675" fill="#F5F0E8"/>
<rect x="26" y="26" width="848" height="623" fill="none" stroke="#C2A15F" stroke-opacity=".32" stroke-width="1"/>
<g transform="translate(-67.5 -50.6) scale(1.15)"><g fill="none" stroke="#22261F" stroke-width="3.4" stroke-opacity="1" stroke-linecap="round" stroke-linejoin="round"><path d="M 412 142 C 436 150, 450 168, 450 190 C 450 207, 444 218, 446 230 C 454 254, 466 278, 472 298 C 475 308, 471 315, 462 316 C 456 317, 453 320, 454 325 C 464 332, 466 342, 459 348 C 455 351, 455 354, 459 357 C 467 364, 466 377, 456 383 C 450 387, 448 392, 451 398 C 460 406, 462 422, 452 434 C 438 450, 414 458, 390 460" stroke-width="3.2"/></g><g fill="none" stroke="#C2A15F" stroke-width="1.2" stroke-opacity="0.5" stroke-linecap="round" stroke-linejoin="round"><path d="M 452 150 L 448 452" stroke-dasharray="6 8"/></g><g fill="none" stroke="#C2A15F" stroke-width="2" stroke-linecap="round" stroke-dasharray="1 9"><path d="M 420 232 C 448 226, 474 232, 492 246"/>
        <path d="M 414 384 C 438 380, 460 384, 476 394"/></g><g fill="none" stroke="#C2A15F" stroke-width="1.1" stroke-opacity="0.4" stroke-linecap="round" stroke-linejoin="round"><circle cx="440" cy="300" r="128" stroke-dasharray="2 12"/></g><path d="M 572 197.85 q 3.24 10.35 12.15 12.15 q -8.91 1.8 -12.15 12.15 q -3.24 -10.35 -12.15 -12.15 q 8.91 -1.8 12.15 -12.15 Z" fill="#C2A15F"/></g>
</svg>