<svg xmlns="http://www.w3.org/2000/svg" viewBox="0 0 900 675">
<rect width="900" height="675" fill="#F5F0E8"/>
<rect x="26" y="26" width="848" height="623" fill="none" stroke="#C2A15F" stroke-opacity=".32" stroke-width="1"/>
<g transform="translate(-208.0 -83.0) scale(1.40)"><g fill="none" stroke="#22261F" stroke-width="3.4" stroke-opacity="1" stroke-linecap="round" stroke-linejoin="round"><path d="M 320 400 C 400 388, 500 386, 620 392" stroke-width="2.8"/></g><g fill="none" stroke="#C2A15F" stroke-width="2" stroke-opacity="1" stroke-linecap="round" stroke-linejoin="round"><path d="M 560 220 L 470 388"/></g><g fill="none" stroke="#C2A15F" stroke-width="1.2" stroke-opacity="0.6" stroke-linecap="round" stroke-linejoin="round"><path d="M 545 210 L 575 230 M 552 200 L 568 240"/></g><circle cx="468" cy="392" r="3.4" fill="#C2A15F"/><g fill="none" stroke="#C2A15F" stroke-width="1.3" stroke-opacity="0.65" stroke-linecap="round" stroke-linejoin="round"><path d="M 444 376 C 452 370, 460 368, 470 368 M 486 392 C 494 386, 504 384, 514 386"/></g><g fill="none" stroke="#C2A15F" stroke-width="2" stroke-linecap="round" stroke-dasharray="1 9"><path d="M 380 372 C 410 364, 436 362, 458 366"/></g><path d="M 596 237.85 q 3.24 10.35 12.15 12.15 q -8.91 1.8 -12.15 12.15 q -3.24 -10.35 -12.15 -12.15 q 8.91 -1.8 12.15 -12.15 Z" fill="#C2A15F"/></g>
</svg>