<svg xmlns="http://www.w3.org/2000/svg" viewBox="0 0 900 675">
<rect width="900" height="675" fill="#F5F0E8"/>
<rect x="26" y="26" width="848" height="623" fill="none" stroke="#C2A15F" stroke-opacity=".32" stroke-width="1"/>
<g fill="none" stroke="#22261F" stroke-width="3.4" stroke-opacity="1" stroke-linecap="round" stroke-linejoin="round"><path d="M 412 142 C 436 150, 450 168, 450 190 C 450 207, 444 218, 446 230 C 454 254, 466 278, 472 298 C 475 308, 471 315, 462 316 C 456 317, 453 320, 454 325 C 464 332, 466 342, 459 348 C 455 351, 455 354, 459 357 C 467 364, 466 377, 456 383 C 450 387, 448 392, 451 398 C 460 406, 462 422, 452 434 C 438 450, 414 458, 390 460" stroke-width="3.2"/></g><g fill="none" stroke="#C2A15F" stroke-width="2" stroke-linecap="round" stroke-dasharray="1 9"><path d="M 392 452 C 420 448, 444 438, 460 422"/></g><path d="M 414 448 L 438 408" stroke="#C2A15F" stroke-width="2" fill="none" stroke-linecap="round"/><path d="M 437.2 417.0 L 438 408 L 430.5 412.9" stroke="#C2A15F" stroke-width="2" fill="none" stroke-linecap="round" stroke-linejoin="round"/><path d="M 446 428 L 468 390" stroke="#C2A15F" stroke-width="2" fill="none" stroke-linecap="round"/><path d="M 467.3 399.0 L 468 390 L 460.6 395.1" stroke="#C2A15F" stroke-width="2" fill="none" stroke-linecap="round" stroke-linejoin="round"/><path d="M 480 350 L 496 312" stroke="#C2A15F" stroke-width="2" fill="none" stroke-linecap="round"/><path d="M 496.5 321.0 L 496 312 L 489.2 317.9" stroke="#C2A15F" stroke-width="2" fill="none" stroke-linecap="round" stroke-linejoin="round"/><path d="M 562 187.85 q 3.24 10.35 12.15 12.15 q -8.91 1.8 -12.15 12.15 q -3.24 -10.35 -12.15 -12.15 q 8.91 -1.8 12.15 -12.15 Z" fill="#C2A15F"/>
</svg>