<svg xmlns="http://www.w3.org/2000/svg" viewBox="0 0 900 675">
<rect width="900" height="675" fill="#F5F0E8"/>
<rect x="26" y="26" width="848" height="623" fill="none" stroke="#C2A15F" stroke-opacity=".32" stroke-width="1"/>
<g fill="none" stroke="#22261F" stroke-width="3.4" stroke-opacity="1" stroke-linecap="round" stroke-linejoin="round"><path d="M 374 120 C 360 182, 362 258, 398 322 C 372 366, 348 402, 346 458 C 344 516, 354 558, 370 598"/>
       <path d="M 526 120 C 540 182, 538 258, 502 322 C 528 366, 552 402, 554 458 C 556 516, 546 558, 530 598"/>
       <path d="M 444 350 c 6 3.5 6 15 0 20 c -6 -3.5 -6 -16.5 0 -20 Z" stroke-width="1.8"/></g><g fill="none" stroke="#C2A15F" stroke-width="2" stroke-linecap="round" stroke-dasharray="1 9"><path d="M 372 300 C 356 322, 356 348, 372 372"/>
        <path d="M 528 300 C 544 322, 544 348, 528 372"/></g><path d="M 300 336 L 332 336" stroke="#C2A15F" stroke-width="2" fill="none" stroke-linecap="round"/><path d="M 323.9 339.9 L 332 336 L 323.9 332.1" stroke="#C2A15F" stroke-width="2" fill="none" stroke-linecap="round" stroke-linejoin="round"/><path d="M 600 336 L 568 336" stroke="#C2A15F" stroke-width="2" fill="none" stroke-linecap="round"/><path d="M 576.1 332.1 L 568 336 L 576.1 339.9" stroke="#C2A15F" stroke-width="2" fill="none" stroke-linecap="round" stroke-linejoin="round"/><path d="M 588 172.175 q 3.42 10.924999999999999 12.825 12.825 q -9.405 1.9 -12.825 12.825 q -3.42 -10.924999999999999 -12.825 -12.825 q 9.405 -1.9 12.825 -12.825 Z" fill="#C2A15F"/>
</svg>