<svg xmlns="http://www.w3.org/2000/svg" viewBox="0 0 900 675">
<rect width="900" height="675" fill="#F5F0E8"/>
<path d="M 448 244 C 440 258, 424 268, 402 272 C 356 282, 330 320, 334 366 C 338 414, 374 446, 420 442 C 448 439, 466 420, 468 392 M 452 244 C 460 258, 476 268, 498 272 C 544 282, 570 320, 566 366 C 562 414, 526 446, 480 442 C 452 439, 434 420, 432 392" fill="none" stroke="#1B1B18" stroke-width="3" stroke-linecap="round" stroke-linejoin="round"/><path d="M 450 236 L 450 260" fill="none" stroke="#1B1B18" stroke-width="1.8" stroke-linecap="round" stroke-linejoin="round"/><circle cx="560" cy="190" r="5" fill="#C2A15F"/>
</svg>