<svg xmlns="http://www.w3.org/2000/svg" viewBox="0 0 900 675">
<rect width="900" height="675" fill="#F5F0E8"/>
<rect x="26" y="26" width="848" height="623" fill="none" stroke="#C2A15F" stroke-opacity=".32" stroke-width="1"/>
<g transform="translate(-180.5 -50.4) scale(1.35)"><g fill="none" stroke="#22261F" stroke-width="3.4" stroke-opacity="1" stroke-linecap="round" stroke-linejoin="round"><path d="M 452 180 C 462 190, 464 202, 458 210 C 454 214, 454 218, 458 222 C 468 230, 467 246, 455 253 C 448 258, 446 264, 450 271 C 461 281, 464 300, 452 315 C 435 334, 405 344, 375 346" stroke-width="3.4"/>
       <path d="M 375 346 C 398 372, 442 390, 494 394" stroke-width="2.4" stroke-opacity=".7"/></g><g fill="none" stroke="#C2A15F" stroke-width="2" stroke-linecap="round" stroke-dasharray="1 9"><path d="M 452 262 C 478 265, 496 281, 497 304 C 497 322, 483 335, 462 339"/></g><path d="M 548 306 L 508 306" stroke="#C2A15F" stroke-width="2" fill="none" stroke-linecap="round"/><path d="M 516.1 302.1 L 508 306 L 516.1 309.9" stroke="#C2A15F" stroke-width="2" fill="none" stroke-linecap="round" stroke-linejoin="round"/><path d="M 560 197.85 q 3.24 10.35 12.15 12.15 q -8.91 1.8 -12.15 12.15 q -3.24 -10.35 -12.15 -12.15 q 8.91 -1.8 12.15 -12.15 Z" fill="#C2A15F"/></g>
</svg>