<svg xmlns="http://www.w3.org/2000/svg" viewBox="0 0 900 675">
<rect width="900" height="675" fill="#F5F0E8"/>
<rect x="26" y="26" width="848" height="623" fill="none" stroke="#C2A15F" stroke-opacity=".32" stroke-width="1"/>
<g fill="none" stroke="#22261F" stroke-width="3.4" stroke-opacity="1" stroke-linecap="round" stroke-linejoin="round"><path d="M 320 320 C 400 308, 500 306, 620 314" stroke-width="2.8"/></g><g fill="none" stroke="#C2A15F" stroke-width="1.8" stroke-opacity="1" stroke-linecap="round" stroke-linejoin="round"><path d="M 380 320 L 380 356 M 420 318 L 420 354 M 460 316 L 460 352 M 500 316 L 500 352 M 540 318 L 540 354"/></g><g fill="none" stroke="#C2A15F" stroke-width="1.4" stroke-opacity="0.7" stroke-linecap="round" stroke-linejoin="round"><path d="M 388 392 C 420 404, 500 404, 532 392 M 400 420 C 428 430, 492 430, 520 420"/></g><g fill="none" stroke="#C2A15F" stroke-width="2" stroke-linecap="round" stroke-dasharray="1 9"><path d="M 352 286 C 420 276, 520 276, 588 284"/></g><path d="M 600 227.85 q 3.24 10.35 12.15 12.15 q -8.91 1.8 -12.15 12.15 q -3.24 -10.35 -12.15 -12.15 q 8.91 -1.8 12.15 -12.15 Z" fill="#C2A15F"/>
</svg>