<svg xmlns="http://www.w3.org/2000/svg" viewBox="0 0 900 675">
<rect width="900" height="675" fill="#F5F0E8"/>
<rect x="26" y="26" width="848" height="623" fill="none" stroke="#C2A15F" stroke-opacity=".32" stroke-width="1"/>
<g fill="none" stroke="#22261F" stroke-width="3.4" stroke-opacity="1" stroke-linecap="round" stroke-linejoin="round"><path d="M 452 220 C 508 196, 556 226, 560 288 C 563 340, 540 380, 512 416 C 492 442, 470 462, 452 470 C 428 480, 408 470, 404 446 C 400 424, 412 408, 428 400" stroke-width="3.4"/>
       <path d="M 470 260 C 506 250, 530 272, 530 308 C 530 342, 514 370, 494 394" stroke-width="2.4" stroke-opacity=".75"/></g><g fill="none" stroke="#C2A15F" stroke-width="2" stroke-linecap="round" stroke-dasharray="1 9"><path d="M 436 250 C 420 300, 416 360, 430 412"/></g><path d="M 360 330 L 396 330" stroke="#C2A15F" stroke-width="2" fill="none" stroke-linecap="round"/><path d="M 387.9 333.9 L 396 330 L 387.9 326.1" stroke="#C2A15F" stroke-width="2" fill="none" stroke-linecap="round" stroke-linejoin="round"/><path d="M 576 187.85 q 3.24 10.35 12.15 12.15 q -8.91 1.8 -12.15 12.15 q -3.24 -10.35 -12.15 -12.15 q 8.91 -1.8 12.15 -12.15 Z" fill="#C2A15F"/>
</svg>