<svg xmlns="http://www.w3.org/2000/svg" viewBox="0 0 900 675">
<rect width="900" height="675" fill="#F5F0E8"/>
<rect x="26" y="26" width="848" height="623" fill="none" stroke="#C2A15F" stroke-opacity=".32" stroke-width="1"/>
<g transform="translate(-83.0 -42.1) scale(1.18)"><g fill="none" stroke="#22261F" stroke-width="3.4" stroke-opacity="1" stroke-linecap="round" stroke-linejoin="round"><path d="M 450 170 c 34 52 56 88 56 122 a 56 56 0 1 1 -112 0 c 0 -34 22 -70 56 -122 Z" stroke-width="3"/></g><g fill="none" stroke="#C2A15F" stroke-width="1.8" stroke-opacity="1" stroke-linecap="round" stroke-linejoin="round"><path d="M 430 260 C 446 274, 458 274, 472 260 M 430 292 C 446 306, 458 306, 472 292 M 430 324 C 446 338, 458 338, 472 324"/></g><g fill="none" stroke="#C2A15F" stroke-width="1.2" stroke-opacity="0.55" stroke-linecap="round" stroke-linejoin="round"><path d="M 430 260 L 430 324 M 472 260 L 472 324"/></g><g fill="none" stroke="#C2A15F" stroke-width="2" stroke-linecap="round" stroke-dasharray="1 9"><path d="M 540 300 C 560 320, 568 348, 560 378"/></g><path d="M 568 227.85 q 3.24 10.35 12.15 12.15 q -8.91 1.8 -12.15 12.15 q -3.24 -10.35 -12.15 -12.15 q 8.91 -1.8 12.15 -12.15 Z" fill="#C2A15F"/></g>
</svg>