<svg xmlns="http://www.w3.org/2000/svg" viewBox="0 0 900 675">
<rect width="900" height="675" fill="#F5F0E8"/>
<rect x="26" y="26" width="848" height="623" fill="none" stroke="#C2A15F" stroke-opacity=".32" stroke-width="1"/>
<g transform="translate(-217.4 -143.0) scale(1.42)"><g fill="none" stroke="#22261F" stroke-width="3.4" stroke-opacity="1" stroke-linecap="round" stroke-linejoin="round"><path d="M 322 408 C 392 396, 470 392, 540 396" stroke-width="2.8"/></g><g fill="none" stroke="#C2A15F" stroke-width="2.2" stroke-opacity="1" stroke-linecap="round" stroke-linejoin="round"><path d="M 540 396 C 566 390, 580 372, 574 350 C 570 334, 556 326, 540 330 C 552 318, 574 316, 592 326"/></g><g fill="none" stroke="#C2A15F" stroke-width="2" stroke-linecap="round" stroke-dasharray="1 9"><path d="M 350 366 C 396 356, 442 352, 484 356"/></g><g fill="none" stroke="#C2A15F" stroke-width="1.4" stroke-opacity="0.6" stroke-linecap="round" stroke-linejoin="round"><path d="M 560 396 C 584 392, 604 386, 618 378"/></g><path d="M 600 255.175 q 3.42 10.924999999999999 12.825 12.825 q -9.405 1.9 -12.825 12.825 q -3.42 -10.924999999999999 -12.825 -12.825 q 9.405 -1.9 12.825 -12.825 Z" fill="#C2A15F"/></g>
</svg>