<svg xmlns="http://www.w3.org/2000/svg" viewBox="0 0 900 675">
<rect width="900" height="675" fill="#F5F0E8"/>
<rect x="26" y="26" width="848" height="623" fill="none" stroke="#C2A15F" stroke-opacity=".32" stroke-width="1"/>
<g fill="none" stroke="#C2A15F" stroke-width="2" stroke-linecap="round" stroke-dasharray="1 9"><path d="M 330 140 C 310 240, 312 350, 344 440 C 360 490, 372 540, 376 590"/>
        <path d="M 570 140 C 590 240, 588 350, 556 440 C 540 490, 528 540, 524 590"/></g><g fill="none" stroke="#22261F" stroke-width="3.4" stroke-opacity="1" stroke-linecap="round" stroke-linejoin="round"><path d="M 384 150 C 370 240, 372 330, 400 400 C 384 460, 376 520, 378 590"/>
       <path d="M 516 150 C 530 240, 528 330, 500 400 C 516 460, 524 520, 522 590"/></g><path d="M 302 330 L 342 330" stroke="#C2A15F" stroke-width="2" fill="none" stroke-linecap="round"/><path d="M 333.9 333.9 L 342 330 L 333.9 326.1" stroke="#C2A15F" stroke-width="2" fill="none" stroke-linecap="round" stroke-linejoin="round"/><path d="M 598 330 L 558 330" stroke="#C2A15F" stroke-width="2" fill="none" stroke-linecap="round"/><path d="M 566.1 326.1 L 558 330 L 566.1 333.9" stroke="#C2A15F" stroke-width="2" fill="none" stroke-linecap="round" stroke-linejoin="round"/><path d="M 450 118.525 q 3.06 9.775 11.475 11.475 q -8.415000000000001 1.7 -11.475 11.475 q -3.06 -9.775 -11.475 -11.475 q 8.415000000000001 -1.7 11.475 -11.475 Z" fill="#C2A15F"/>
</svg>