<svg xmlns="http://www.w3.org/2000/svg" viewBox="0 0 900 675">
<rect width="900" height="675" fill="#F5F0E8"/>
<path d="M 388 150 C 372 244, 374 336, 402 406 C 386 466, 378 526, 380 604" fill="none" stroke="#1B1B18" stroke-width="3" stroke-linecap="round" stroke-linejoin="round"/><path d="M 512 150 C 528 244, 526 336, 498 406 C 514 466, 522 526, 520 604" fill="none" stroke="#1B1B18" stroke-width="3" stroke-linecap="round" stroke-linejoin="round"/><path d="M 332 150 C 312 250, 314 360, 348 452 C 364 502, 374 552, 378 604" fill="none" stroke="#C2A15F" stroke-width="1.6" stroke-linecap="round"/><path d="M 568 150 C 588 250, 586 360, 552 452 C 536 502, 526 552, 522 604" fill="none" stroke="#C2A15F" stroke-width="1.6" stroke-linecap="round"/><circle cx="450" cy="128" r="5" fill="#C2A15F"/>
</svg>