<svg xmlns="http://www.w3.org/2000/svg" viewBox="0 0 900 675">
<rect width="900" height="675" fill="#F5F0E8"/>
<path d="M 336 358 C 380 328, 420 320, 444 336 C 450 340, 456 340, 462 336 C 486 320, 526 328, 570 358 C 520 402, 386 402, 336 358 Z" fill="none" stroke="#1B1B18" stroke-width="3" stroke-linecap="round" stroke-linejoin="round"/><path d="M 348 358 C 410 360, 496 360, 558 358" fill="none" stroke="#1B1B18" stroke-width="1.6" stroke-linecap="round" stroke-linejoin="round"/><path d="M 450 232 c 12 20, 18 33, 18 44 a 18 18 0 1 1 -36 0 c 0 -11, 6 -24, 18 -44 Z" fill="none" stroke="#C2A15F" stroke-width="1.8" stroke-linecap="round"/><circle cx="586" cy="268" r="5" fill="#C2A15F"/>
</svg>