<svg xmlns="http://www.w3.org/2000/svg" viewBox="0 0 900 675">
<rect width="900" height="675" fill="#F5F0E8"/>
<rect x="26" y="26" width="848" height="623" fill="none" stroke="#C2A15F" stroke-opacity=".32" stroke-width="1"/>
<g fill="none" stroke="#22261F" stroke-width="3.4" stroke-opacity="1" stroke-linecap="round" stroke-linejoin="round"><path d="M 428 128 C 408 190, 402 244, 414 292 C 376 312, 354 356, 364 404 C 376 460, 426 492, 480 484 C 470 520, 460 556, 456 600" stroke-width="3.4"/></g><g fill="none" stroke="#C2A15F" stroke-width="2" stroke-linecap="round" stroke-dasharray="1 9"><circle cx="424" cy="404" r="42"/></g><path d="M 530 430 L 564 404" stroke="#C2A15F" stroke-width="2" fill="none" stroke-linecap="round"/><path d="M 559.9 412.0 L 564 404 L 555.2 405.8" stroke="#C2A15F" stroke-width="2" fill="none" stroke-linecap="round" stroke-linejoin="round"/><path d="M 566 207.175 q 3.42 10.924999999999999 12.825 12.825 q -9.405 1.9 -12.825 12.825 q -3.42 -10.924999999999999 -12.825 -12.825 q 9.405 -1.9 12.825 -12.825 Z" fill="#C2A15F"/>
</svg>