<svg xmlns="http://www.w3.org/2000/svg" viewBox="0 0 900 675">
<rect width="900" height="675" fill="#F5F0E8"/>
<rect x="26" y="26" width="848" height="623" fill="none" stroke="#C2A15F" stroke-opacity=".32" stroke-width="1"/>
<g transform="translate(-89.4 -9.2) scale(1.15)"><g fill="none" stroke="#22261F" stroke-width="3.4" stroke-opacity="1" stroke-linecap="round" stroke-linejoin="round"><path d="M 412 142 C 436 150, 450 168, 450 190 C 450 207, 444 218, 446 230 C 454 254, 466 278, 472 298 C 475 308, 471 315, 462 316 C 456 317, 453 320, 454 325 C 464 332, 466 342, 459 348 C 455 351, 455 354, 459 357 C 467 364, 466 377, 456 383 C 450 387, 448 392, 451 398 C 460 406, 462 422, 452 434 C 438 450, 414 458, 390 460"/></g><g fill="none" stroke="#C2A15F" stroke-width="2" stroke-linecap="round" stroke-dasharray="1 9"><path d="M 448 236 C 456 260, 464 282, 468 300"/></g><g fill="none" stroke="#C2A15F" stroke-width="1.4" stroke-opacity="0.7" stroke-linecap="round" stroke-linejoin="round"><path d="M 452 330 C 460 326, 466 320, 468 312"/></g><path d="M 548 187.175 q 3.42 10.924999999999999 12.825 12.825 q -9.405 1.9 -12.825 12.825 q -3.42 -10.924999999999999 -12.825 -12.825 q 9.405 -1.9 12.825 -12.825 Z" fill="#C2A15F"/></g>
</svg>