<svg xmlns="http://www.w3.org/2000/svg" viewBox="0 0 900 675">
<rect width="900" height="675" fill="#F5F0E8"/>
<path d="M 400 330 m -62 0 a 62 62 0 1 0 124 0 a 62 62 0 1 0 -124 0" fill="none" stroke="#1B1B18" stroke-width="3" stroke-linecap="round" stroke-linejoin="round"/><path d="M 400 330 m -16 0 a 16 16 0 1 0 32 0 a 16 16 0 1 0 -32 0" fill="none" stroke="#1B1B18" stroke-width="2.2" stroke-linecap="round" stroke-linejoin="round"/><path d="M 542 398 m -42 0 a 42 42 0 1 0 84 0 a 42 42 0 1 0 -84 0" fill="none" stroke="#1B1B18" stroke-width="2.6" stroke-linecap="round" stroke-linejoin="round"/><path d="M 522 264 m -34 0 a 34 34 0 1 0 68 0 a 34 34 0 1 0 -68 0" fill="none" stroke="#C2A15F" stroke-width="1.8" stroke-linecap="round"/><circle cx="604" cy="322" r="5" fill="#C2A15F"/>
</svg>