<svg xmlns="http://www.w3.org/2000/svg" viewBox="0 0 900 675">
<rect width="900" height="675" fill="#F5F0E8"/>
<path d="M 470 596 C 470 540, 476 486, 448 470 C 416 452, 412 420, 424 402 C 408 400, 396 392, 396 378 C 396 366, 404 360, 418 356 C 402 350, 393 338, 400 322 C 410 300, 452 288, 452 288 C 452 288, 404 274, 380 244 C 356 214, 356 176, 372 120" fill="none" stroke="#1B1B18" stroke-width="3" stroke-linecap="round" stroke-linejoin="round"/><path d="M 372 150 C 392 128, 430 118, 462 120" fill="none" stroke="#C2A15F" stroke-width="2" stroke-linecap="round"/><circle cx="392" cy="138" r="4" fill="#C2A15F"/><circle cx="414" cy="128" r="3.4" fill="#C2A15F"/><circle cx="438" cy="122" r="3" fill="#C2A15F"/><circle cx="560" cy="200" r="5" fill="#C2A15F"/>
</svg>