<svg xmlns="http://www.w3.org/2000/svg" viewBox="0 0 900 675">
<rect width="900" height="675" fill="#F5F0E8"/>
<rect x="26" y="26" width="848" height="623" fill="none" stroke="#C2A15F" stroke-opacity=".32" stroke-width="1"/>
<g transform="translate(-241.5 -147.5) scale(1.50)"><g fill="none" stroke="#22261F" stroke-width="3.4" stroke-opacity="1" stroke-linecap="round" stroke-linejoin="round"><path d="M 322 396 C 358 388, 396 384, 434 384" stroke-width="2.6"/>
       <path d="M 352 348 l 12 16 M 388 340 l 12 16 M 424 334 l 12 16" stroke-width="2.2" stroke-opacity=".65"/></g><g fill="none" stroke="#C2A15F" stroke-width="2.6" stroke-opacity="1" stroke-linecap="round" stroke-linejoin="round"><path d="M 448 382 C 502 376, 556 372, 598 372"/></g><g fill="none" stroke="#C2A15F" stroke-width="1.6" stroke-opacity="0.65" stroke-linecap="round" stroke-linejoin="round"><path d="M 470 344 C 512 336, 556 332, 588 332"/></g><g fill="none" stroke="#C2A15F" stroke-width="2" stroke-linecap="round" stroke-dasharray="1 9"><path d="M 462 306 C 500 298, 542 294, 576 294"/></g><path d="M 600 236.5 q 3.6 11.5 13.5 13.5 q -9.9 2 -13.5 13.5 q -3.6 -11.5 -13.5 -13.5 q 9.9 -2 13.5 -13.5 Z" fill="#C2A15F"/></g>
</svg>