<svg xmlns="http://www.w3.org/2000/svg" viewBox="0 0 396 840"><path fill="#C2A15F" fill-rule="evenodd" d="M189.9,809.9C186.8,806.8 187.8,796.7 192.1,788.5C193.8,785.2 198.3,776.6 202.0,769.5C205.7,762.4 211.3,751.5 214.5,745.5C217.7,739.5 224.8,725.5 230.4,714.5C236.0,703.5 242.2,691.6 244.2,688.0C246.2,684.4 248.9,678.8 250.1,675.5C251.3,672.2 253.6,667.2 255.1,664.5C256.6,661.8 259.1,656.1 260.6,652.0C262.0,647.9 265.0,641.1 267.1,636.9C269.2,632.7 272.1,624.7 273.5,619.1C274.9,613.5 277.3,605.7 278.9,601.7C282.5,592.5 283.2,589.4 287.9,561.0C295.0,518.5 295.5,499.9 290.6,468.0C289.2,458.9 287.4,446.6 286.5,440.5C284.1,423.6 283.1,418.4 279.5,406.0C275.2,391.1 274.4,386.9 272.0,366.5C270.8,356.1 268.9,345.6 267.1,339.4C263.1,325.8 262.0,312.5 262.0,280.6C262.1,249.1 263.0,241.9 268.4,231.2C270.4,227.2 272.7,220.8 273.5,217.0C275.9,205.6 279.3,201.0 285.2,201.0C290.5,201.0 291.3,218.9 286.5,232.1C280.8,247.8 279.8,251.9 279.0,263.0C277.7,278.9 277.8,315.4 279.1,322.6C279.7,325.8 281.9,332.5 284.1,337.4C286.3,342.2 289.2,351.0 290.6,356.9C291.9,362.7 294.8,371.3 296.9,376.0C299.0,380.7 301.8,389.0 303.0,394.5C304.2,400.0 306.5,408.0 308.1,412.2C315.7,433.0 318.6,478.0 315.5,528.5C313.7,557.7 313.9,556.6 308.5,577.0C306.1,586.1 303.4,597.5 302.5,602.5C301.6,607.5 299.1,615.6 297.0,620.7C294.8,625.7 292.1,633.8 290.9,638.7C289.7,643.5 287.0,650.9 284.9,655.0C282.9,659.2 280.2,666.0 279.0,670.0C277.8,674.1 275.1,680.6 273.1,684.5C271.0,688.4 268.6,693.6 267.6,696.2C264.9,703.6 240.0,751.7 236.5,756.5C235.2,758.1 232.8,762.3 231.1,765.7C225.6,776.7 208.0,803.9 203.2,808.7C199.2,812.8 193.3,813.3 189.9,809.9ZM123.0,631.8C121.9,630.6 120.7,627.8 120.3,625.5C119.8,622.4 118.6,620.4 114.4,616.5C111.2,613.5 108.2,609.5 107.0,606.6C105.9,603.9 103.0,599.5 100.6,596.9C97.7,593.6 95.4,589.8 94.1,585.7C92.9,582.2 90.3,577.3 88.0,574.6C85.8,572.0 83.2,567.5 82.3,564.7C81.3,561.9 79.3,557.3 77.8,554.5C71.9,543.3 70.1,539.1 67.2,530.5C65.6,525.5 63.1,518.7 61.6,515.3C60.1,511.8 58.0,503.9 56.9,497.8C55.8,491.6 53.5,481.1 51.9,474.5C46.7,453.5 46.9,430.1 52.5,408.2C53.8,402.8 56.0,393.2 57.4,386.7C58.8,380.2 61.1,372.4 62.5,369.2C67.3,359.1 68.0,355.9 69.5,339.8C70.8,327.2 70.8,321.4 70.0,310.8C66.7,270.1 66.6,272.0 71.4,272.0C80.8,272.1 84.9,277.7 90.2,298.3C94.8,315.8 95.0,326.8 91.1,338.8C90.0,342.2 88.1,350.5 87.0,357.1C85.9,363.7 83.1,374.8 80.9,381.7C75.1,400.1 74.6,405.2 74.6,442.5C74.6,481.2 75.5,489.8 81.0,506.0C83.2,512.3 85.9,522.0 87.0,527.5C88.6,535.0 90.0,539.0 93.0,544.0C95.5,548.2 97.5,553.1 98.5,557.9C100.2,566.1 100.0,565.6 104.7,572.7C106.7,575.5 109.1,581.1 110.2,585.2C111.3,589.3 113.3,594.0 114.9,596.0C118.9,601.1 119.9,603.3 121.1,609.7C121.9,613.9 123.0,616.4 125.2,618.6C128.6,622.2 130.9,628.1 130.2,631.6C129.6,634.7 125.9,634.8 123.0,631.8ZM35.0,146.4C22.8,141.1 21.2,130.7 30.6,116.9C52.0,85.4 89.4,61.4 122.1,58.0C149.4,55.2 161.3,58.6 159.7,68.7C158.2,77.7 152.7,80.7 134.1,82.6C106.5,85.3 98.3,87.6 85.0,96.2C70.5,105.6 63.6,114.8 59.9,129.5C56.1,144.7 46.3,151.3 35.0,146.4ZM331.0,101.4C313.9,100.5 286.9,97.9 281.4,96.4C252.0,88.9 226.9,71.9 210.5,48.5C201.2,35.1 200.1,27.1 207.0,23.5C211.5,21.2 214.8,23.2 224.8,34.2C237.2,48.0 244.2,53.6 258.3,60.8C276.1,69.8 289.8,71.5 328.8,69.8C358.4,68.5 361.4,69.3 364.0,78.8C368.4,95.4 357.9,102.6 331.0,101.4Z"/></svg>